# xmcd
#
# Track frame offsets:
#	150
#	16067
#	36272
#	54145
#	71822
#	84105
#	100177
#	108492
#	130145
#	147265
#	161777
#	175697
#	189920
#
# Disc length: 2700 seconds
#
# Revision: 1
# Processed by: cddbd v1.5.2PL0 Copyright (c) Steve Scherf et al.
# Submitted via: audiograbber 1.83.01
#
DISCID=a00a8a0d
DTITLE=Simone - Gotas D'Água
DYEAR=1975
DGENRE=MPB
TTITLE0=Gota D'Água (com Milton Nascimento)
TTITLE1=Disfarce
TTITLE2=Matriz ou Filial
TTITLE3=Nosotros
TTITLE4=Sistema Nervoso
TTITLE5=Latin Lover
TTITLE6=Samba Pro João Gilberto
TTITLE7=Outubro
TTITLE8=Idolatrada
TTITLE9=O Trem Tá Feio
TTITLE10=Eu Nem Ligo
TTITLE11=O Ronco da Cuíca (faixa bônus)
TTITLE12=O Que Será (À Flor da Terra) (faixa bônus)
EXTD=
EXTT0=
EXTT1=
EXTT2=
EXTT3=
EXTT4=
EXTT5=
EXTT6=
EXTT7=
EXTT8=
EXTT9=
EXTT10=
EXTT11=
EXTT12=
PLAYORDER=
